<svg width="101" height="48" viewBox="0 0 101 48" fill="none" xmlns="http://www.w3.org/2000/svg">
<g clip-path="url(#clip0)">
<path d="M26.9947 16.6589C26.9632 16.3685 26.7827 16.1115 26.513 15.9856L13.8567 10.0794C13.6306 9.97386 13.3693 9.97386 13.1431 10.0794L0.486896 15.9856C0.217213 16.1115 0.0367559 16.3685 0.00516797 16.6589C0.00448242 16.665 0 16.7458 0 16.7502V31.094C0 31.439 0.210041 31.7493 0.530402 31.8773L13.1867 36.9398C13.2872 36.9801 13.3936 37.0002 13.5 37.0002C13.6064 37.0002 13.7128 36.9801 13.8133 36.9398L26.4696 31.8773C26.79 31.7493 27 31.439 27 31.094V16.7502C27 16.7458 26.9954 16.665 26.9947 16.6589ZM13.5 11.7751L24.0334 16.6906L19.9774 18.3131L9.24576 13.7604L13.5 11.7751ZM7.18822 14.7206L17.7533 19.2026L13.5 20.904L2.96662 16.6906L7.18822 14.7206ZM1.6875 17.9964L12.6562 22.3839V34.9102L1.6875 30.5227V17.9964ZM14.3438 34.9103V22.3839L25.3125 17.9964V30.5227L14.3438 34.9103Z" fill="#0A143A"/>
</g>
<path d="M44.1562 28.4844H37.9922L36.8203 32H33.082L39.4336 14.9375H42.6914L49.0781 32H45.3398L44.1562 28.4844ZM38.9414 25.6367H43.207L41.0625 19.25L38.9414 25.6367ZM61.875 25.7773C61.875 27.8086 61.4414 29.3945 60.5742 30.5352C59.707 31.668 58.4961 32.2344 56.9414 32.2344C55.5664 32.2344 54.4688 31.707 53.6484 30.6523L53.4961 32H50.4492V14H53.8359V20.457C54.6172 19.543 55.6445 19.0859 56.918 19.0859C58.4648 19.0859 59.6758 19.6562 60.5508 20.7969C61.4336 21.9297 61.875 23.5273 61.875 25.5898V25.7773ZM58.4883 25.5312C58.4883 24.25 58.2852 23.3164 57.8789 22.7305C57.4727 22.1367 56.8672 21.8398 56.0625 21.8398C54.9844 21.8398 54.2422 22.2812 53.8359 23.1641V28.168C54.25 29.0586 55 29.5039 56.0859 29.5039C57.1797 29.5039 57.8984 28.9648 58.2422 27.8867C58.4062 27.3711 58.4883 26.5859 58.4883 25.5312ZM67.5469 32H64.1484V19.3203H67.5469V32ZM63.9492 16.0391C63.9492 15.5312 64.1172 15.1133 64.4531 14.7852C64.7969 14.457 65.2617 14.293 65.8477 14.293C66.4258 14.293 66.8867 14.457 67.2305 14.7852C67.5742 15.1133 67.7461 15.5312 67.7461 16.0391C67.7461 16.5547 67.5703 16.9766 67.2188 17.3047C66.875 17.6328 66.418 17.7969 65.8477 17.7969C65.2773 17.7969 64.8164 17.6328 64.4648 17.3047C64.1211 16.9766 63.9492 16.5547 63.9492 16.0391ZM74.4023 16.2031V19.3203H76.5703V21.8047H74.4023V28.1328C74.4023 28.6016 74.4922 28.9375 74.6719 29.1406C74.8516 29.3438 75.1953 29.4453 75.7031 29.4453C76.0781 29.4453 76.4102 29.418 76.6992 29.3633V31.9297C76.0352 32.1328 75.3516 32.2344 74.6484 32.2344C72.2734 32.2344 71.0625 31.0352 71.0156 28.6367V21.8047H69.1641V19.3203H71.0156V16.2031H74.4023ZM77.5781 25.543C77.5781 24.2852 77.8203 23.1641 78.3047 22.1797C78.7891 21.1953 79.4844 20.4336 80.3906 19.8945C81.3047 19.3555 82.3633 19.0859 83.5664 19.0859C85.2773 19.0859 86.6719 19.6094 87.75 20.6562C88.8359 21.7031 89.4414 23.125 89.5664 24.9219L89.5898 25.7891C89.5898 27.7344 89.0469 29.2969 87.9609 30.4766C86.875 31.6484 85.418 32.2344 83.5898 32.2344C81.7617 32.2344 80.3008 31.6484 79.207 30.4766C78.1211 29.3047 77.5781 27.7109 77.5781 25.6953V25.543ZM80.9648 25.7891C80.9648 26.9922 81.1914 27.9141 81.6445 28.5547C82.0977 29.1875 82.7461 29.5039 83.5898 29.5039C84.4102 29.5039 85.0508 29.1914 85.5117 28.5664C85.9727 27.9336 86.2031 26.9258 86.2031 25.543C86.2031 24.3633 85.9727 23.4492 85.5117 22.8008C85.0508 22.1523 84.4023 21.8281 83.5664 21.8281C82.7383 21.8281 82.0977 22.1523 81.6445 22.8008C81.1914 23.4414 80.9648 24.4375 80.9648 25.7891Z" fill="#0A143A"/>
<defs>
<clipPath id="clip0">
<rect width="27" height="27" fill="white" transform="translate(0 10)"/>
</clipPath>
</defs>
</svg>
